<?xml version="1.0" encoding="UTF-8" standalone="no"?>
<!-- Created with Inkscape (http://www.inkscape.org/) -->

<svg
   version="1.1"
   id="svg2"
   xml:space="preserve"
   width="800"
   height="800"
   viewBox="0 0 800 800"
   sodipodi:docname="cgit.svg"
   inkscape:version="1.1 (c4e8f9ed74, 2021-05-24)"
   xmlns:inkscape="http://www.inkscape.org/namespaces/inkscape"
   xmlns:sodipodi="http://sodipodi.sourceforge.net/DTD/sodipodi-0.dtd"
   xmlns="http://www.w3.org/2000/svg"
   xmlns:svg="http://www.w3.org/2000/svg"><defs
     id="defs6"><clipPath
       clipPathUnits="userSpaceOnUse"
       id="clipPath16"><path
         d="M 0,600 H 600 V 0 H 0 Z"
         id="path14" /></clipPath></defs><sodipodi:namedview
     id="namedview4"
     pagecolor="#ffffff"
     bordercolor="#666666"
     borderopacity="1.0"
     inkscape:pageshadow="2"
     inkscape:pageopacity="0.0"
     inkscape:pagecheckerboard="0"
     showgrid="false"
     inkscape:zoom="0.59775936"
     inkscape:cx="-224.17047"
     inkscape:cy="572.97304"
     inkscape:window-width="1920"
     inkscape:window-height="1017"
     inkscape:window-x="1024"
     inkscape:window-y="0"
     inkscape:window-maximized="1"
     inkscape:current-layer="g10" /><g
     id="g8"
     inkscape:groupmode="layer"
     inkscape:label="potato-growth-publicdomainvectors.org"
     transform="matrix(1.3333333,0,0,-1.3333333,0,800)"><g
       id="g10"><path
         d="m 352.527,71.212 c 119.292,0 216.588,19.549 216.588,43.517 0,23.966 -97.296,43.518 -216.588,43.518 -119.296,0 -216.59,-19.552 -216.59,-43.518 0,-23.968 97.294,-43.517 216.59,-43.517"
         style="fill:#d7c9c4;fill-opacity:1;fill-rule:evenodd;stroke:none"
         id="path68" /><path
         d="m 523.723,359.433 7.308,1.814 c 16.641,4.127 29.5,17.34 33.18,34.083 3.678,16.749 -2.462,34.131 -15.84,44.854 -1.964,1.576 -2.892,4.112 -2.405,6.583 0.487,2.47 2.31,4.464 4.726,5.175 2.416,0.711 5.025,0.021 6.773,-1.796 17.181,-17.828 25.06,-42.65 21.308,-67.123 -4.247,-27.691 -24.716,-50.115 -51.906,-56.868 z"
         style="fill:#c1e127;fill-opacity:1;fill-rule:evenodd;stroke:none"
         id="path70" /><path
         d="m 570.434,432.259 c 7.913,-14.921 10.956,-32.163 8.339,-49.236 -4.247,-27.691 -24.716,-50.115 -51.906,-56.868 l -0.714,7.547 6.641,8.42 c 30.316,12.935 47.209,45.541 40.293,77.767 z"
         style="fill:#9cc720;fill-opacity:1;fill-rule:evenodd;stroke:none"
         id="path72" /><path
         d="m 41.593,518.898 c 9.117,1.095 17.78,-4.252 20.887,-12.891 12.146,-33.771 53.228,-54.555 88.861,-50.276 l 6.962,22.123 -6.056,18.253 c -8.381,25.256 -28.546,44.841 -54.036,52.481 -25.487,7.64 -53.105,2.375 -73.992,-14.108 -2.643,-2.083 -3.835,-5.51 -3.061,-8.785 0.774,-3.274 3.376,-5.803 6.672,-6.483 4.345,-0.894 8.811,-1.025 13.195,-0.388 0.19,0.029 0.381,0.053 0.568,0.074"
         style="fill:#9ac421;fill-opacity:1;fill-rule:evenodd;stroke:none"
         id="path74" /><path
         d="m 150.674,470.385 c -8.495,35.895 -44.223,67.886 -91.023,64.255 52.062,-8.233 74.373,-34.093 91.023,-64.255"
         style="fill:#769a2a;fill-opacity:1;fill-rule:evenodd;stroke:none"
         id="path76" /><path
         d="m 136.068,247.965 -10.825,9.899 c -34.458,32.867 -36.929,87.035 -5.605,122.907 29.001,33.206 39.04,78.918 26.628,121.221 l 14.29,5.796 2.619,-9.136 c 7.876,-27.453 9.194,-56.377 3.852,-84.435 -3.503,-18.388 -12.293,-35.358 -25.296,-48.825 -10.985,-11.375 -14.848,-27.858 -10.065,-42.93 4.786,-15.073 17.448,-26.308 32.982,-29.266 -11.037,-22.228 -19.32,-26.585 -7.348,-42.474 z"
         style="fill:#9ac421;fill-opacity:1;fill-rule:evenodd;stroke:none"
         id="path78" /><path
         d="m 167.755,418.287 c -0.227,-1.358 -0.47,-2.715 -0.728,-4.07 -3.503,-18.388 -12.293,-35.358 -25.296,-48.825 -10.985,-11.375 -14.848,-27.858 -10.065,-42.93 0.647,-2.044 1.444,-4.016 2.367,-5.904 l 0.193,-0.387 0.016,-0.035 c 0.123,-0.243 0.25,-0.488 0.376,-0.728 l 0.098,-0.178 0.134,-0.257 0.032,-0.061 0.229,-0.409 0.166,-0.293 0.138,-0.243 0.163,-0.281 0.238,-0.405 0.069,-0.114 0.086,-0.135 0.169,-0.278 0.169,-0.267 0.253,-0.392 0.007,-0.017 0.227,-0.347 0.046,-0.066 0.422,-0.622 0.111,-0.163 0.172,-0.243 0.244,-0.342 0.089,-0.126 0.274,-0.375 0.046,-0.058 0.212,-0.284 0.024,-0.031 0.286,-0.369 0.198,-0.253 0.132,-0.166 0.249,-0.31 0.293,-0.355 0.28,-0.332 0.037,-0.046 0.284,-0.333 0.31,-0.35 0.243,-0.271 0.152,-0.164 0.227,-0.249 0.317,-0.341 0.033,-0.035 0.243,-0.252 0.103,-0.109 0.264,-0.269 0.329,-0.327 0.037,-0.04 0.207,-0.198 0.264,-0.256 0.16,-0.154 0.338,-0.315 0.032,-0.029 0.298,-0.275 0.009,-0.009 0.346,-0.312 0.224,-0.195 0.206,-0.18 0.215,-0.184 0.055,-0.049 0.355,-0.298 0.2,-0.166 0.284,-0.232 0.201,-0.157 0.035,-0.029 0.363,-0.287 0.006,-0.005 0.212,-0.164 0.296,-0.226 0.223,-0.166 0.372,-0.276 0.319,-0.229 0.157,-0.111 0.281,-0.199 0.384,-0.263 0.024,-0.018 0.343,-0.228 0.06,-0.04 0.347,-0.23 0.39,-0.25 0.014,-0.008 0.373,-0.232 0.031,-0.021 c 0.215,-0.131 0.436,-0.263 0.653,-0.395 l 0.196,-0.114 0.275,-0.161 0.051,-0.032 0.407,-0.228 0.241,-0.135 0.281,-0.155 0.253,-0.132 0.043,-0.026 0.415,-0.214 0.309,-0.162 0.19,-0.096 0.332,-0.167 0.422,-0.2 0.289,-0.138 0.335,-0.154 0.217,-0.101 c 3.05,-1.379 6.285,-2.41 9.662,-3.053 -3.651,-7.351 -6.999,-12.748 -9.412,-17.253 -0.407,0.244 -0.808,0.491 -1.213,0.74 l -0.169,-3.446 c -2.673,-5.593 -3.439,-9.99 -0.779,-15.737 l -0.364,-7.374 -2.23,-0.286 c -2.195,0.773 -6.577,-0.046 -11.499,-1.496 l -2.914,-0.379 -10.825,9.899 c -12.625,12.043 -20.95,26.947 -24.897,42.761 1.008,-2.037 1.903,-4.139 2.666,-6.294 0.883,-2.487 2.989,-4.345 5.568,-4.912 2.582,-0.567 5.271,0.235 7.116,2.127 4.896,5.018 6.512,12.381 4.173,18.99 l -1.696,4.78 c -8.177,16.758 -3.354,37.089 11.705,48.35 9.893,7.4 18.293,16.603 24.762,27.124 2.929,4.77 5.506,9.744 7.71,14.887 z"
         style="fill:#769a2a;fill-opacity:1;fill-rule:evenodd;stroke:none"
         id="path80" /><path
         d="m 403.955,407.895 c 85.493,3.897 157.957,-62.248 161.856,-147.741 3.9,-85.49 -62.245,-157.958 -147.735,-161.855 -29.254,-1.333 -56.979,5.537 -80.957,18.574 -16.519,-7.715 -34.79,-12.398 -54.133,-13.278 -79.176,-3.611 -146.291,57.647 -149.901,136.824 -3.611,79.18 57.646,146.29 136.823,149.901 19.343,0.883 37.963,-2.115 55.116,-8.294 22.694,15.167 49.677,24.533 78.931,25.869"
         style="fill:#da8a38;fill-opacity:1;fill-rule:evenodd;stroke:none"
         id="path82" /><path
         d="m 477.887,392.905 c 49.82,-23.88 85.232,-73.696 87.924,-132.751 3.9,-85.49 -62.245,-157.958 -147.735,-161.855 -29.254,-1.333 -56.979,5.537 -80.957,18.574 -16.519,-7.715 -34.79,-12.398 -54.133,-13.278 -56.598,-2.582 -107.023,27.987 -132.502,74.546 37.608,-44.266 132.19,-10.631 181.901,40.522 95.963,-47.398 216.768,57.98 145.502,174.242"
         style="fill:#ca7626;fill-opacity:1;fill-rule:evenodd;stroke:none"
         id="path84" /><path
         d="m 531.513,155.685 c -26.898,-33.251 -67.352,-55.286 -113.437,-57.386 -29.254,-1.333 -56.979,5.537 -80.957,18.574 -16.519,-7.715 -34.79,-12.398 -54.133,-13.278 -19.483,-0.888 -38.238,2.152 -55.492,8.424 l 12.855,-1.113 c 34.085,-2.946 67.941,7.802 94.088,29.865 l 12.791,-6.042 c 62.118,-29.345 133.258,-19.272 184.285,20.956"
         style="fill:#ad601e;fill-opacity:1;fill-rule:evenodd;stroke:none"
         id="path86" /><path
         d="m 288.529,344.521 c -10.077,-0.458 -18.039,-5.457 -17.781,-11.166 0.264,-5.709 8.644,-9.962 18.724,-9.501 10.08,0.459 18.039,5.46 17.778,11.167 -0.261,5.706 -8.645,9.958 -18.721,9.5 m -37.851,23.106 c -6.558,-0.298 -11.782,-2.511 -11.674,-4.936 0.112,-2.429 5.52,-4.155 12.074,-3.857 6.558,0.298 11.782,2.511 11.674,4.938 -0.112,2.428 -5.518,4.153 -12.074,3.855 m 16.768,9.14 c 42.016,1.918 76.964,-15.993 78.059,-40.001 1.095,-24.012 -32.076,-45.026 -74.095,-46.943 -42.015,-1.917 -76.964,15.992 -78.058,40.001 -1.095,24.012 32.079,45.026 74.094,46.943"
         style="fill:#eb9d4c;fill-opacity:1;fill-rule:evenodd;stroke:none"
         id="path88" /><path
         d="m 393.715,284.693 c 17.488,0.799 31.993,-5.79 32.4,-14.717 0.406,-8.925 -13.439,-16.803 -30.925,-17.603 -17.488,-0.797 -31.993,5.792 -32.4,14.717 -0.407,8.925 13.439,16.806 30.925,17.603"
         style="fill:#ca7626;fill-opacity:1;fill-rule:evenodd;stroke:none"
         id="path90" /><path
         d="m 229.371,221.23 c 11.295,0.517 20.661,-3.691 20.919,-9.4 0.261,-5.709 -8.684,-10.753 -19.976,-11.267 -11.294,-0.515 -20.658,3.695 -20.921,9.402 -0.258,5.706 8.683,10.75 19.978,11.265"
         style="fill:#ca7626;fill-opacity:1;fill-rule:evenodd;stroke:none"
         id="path92" /><path
         d="m 179.219,274.911 c 8.804,0.402 16.153,-3.897 16.414,-9.606 0.261,-5.709 -6.664,-10.662 -15.468,-11.064 -8.805,-0.4 -16.153,3.902 -16.417,9.608 -0.258,5.709 6.666,10.661 15.471,11.062"
         style="fill:#ca7626;fill-opacity:1;fill-rule:evenodd;stroke:none"
         id="path94" /><path
         d="m 400.455,376.002 c 8.805,0.4 16.15,-3.898 16.411,-9.607 0.261,-5.709 -6.663,-10.659 -15.468,-11.06 -8.804,-0.404 -16.153,3.9 -16.414,9.606 -0.26,5.706 6.667,10.66 15.471,11.061"
         style="fill:#ca7626;fill-opacity:1;fill-rule:evenodd;stroke:none"
         id="path96" /><path
         d="m 517.504,169.7 c 5.101,0.232 9.343,-1.967 9.477,-4.91 0.135,-2.943 -3.891,-5.517 -8.99,-5.752 -5.101,-0.232 -9.344,1.966 -9.478,4.909 -0.135,2.944 3.892,5.518 8.991,5.753 M 274.102,143.945 c 6.8,0.31 12.432,-1.997 12.576,-5.152 0.142,-3.156 -5.254,-5.968 -12.055,-6.277 -6.799,-0.31 -12.43,1.998 -12.573,5.153 -0.144,3.155 5.253,5.965 12.052,6.276 m 161.159,36.658 c 12.994,0.592 23.828,-5.475 24.194,-13.551 0.367,-8.076 -9.867,-15.105 -22.859,-15.698 -12.994,-0.593 -23.825,5.474 -24.195,13.554 -0.367,8.076 9.868,15.104 22.86,15.695 m -92.347,10.111 c 6.805,0.311 12.462,-2.637 12.643,-6.584 0.177,-3.946 -5.188,-7.4 -11.989,-7.709 -6.798,-0.31 -12.456,2.64 -12.639,6.586 -0.178,3.946 5.187,7.397 11.985,7.707 m 180.482,52.74 c 10.201,0.464 18.684,-3.881 18.951,-9.71 0.266,-5.83 -7.787,-10.931 -17.991,-11.398 -10.2,-0.464 -18.683,3.883 -18.95,9.713 -0.266,5.829 7.787,10.93 17.99,11.395"
         style="fill:#ad601e;fill-opacity:1;fill-rule:evenodd;stroke:none"
         id="path98" /><path
         d="m 232.748,563.229 c -7.765,-1.242 -13.645,-7.683 -14.173,-15.527 -2.069,-30.671 -25.049,-55.845 -55.403,-60.697 l -16.906,14.987 0.699,16.456 c 0.966,22.773 12.972,43.644 32.171,55.928 19.199,12.284 43.182,14.437 64.261,5.772 2.666,-1.096 4.457,-3.64 4.586,-6.517 0.132,-2.881 -1.419,-5.575 -3.975,-6.91 -3.364,-1.757 -7.01,-2.915 -10.777,-3.421 -0.16,-0.021 -0.323,-0.046 -0.483,-0.071"
         style="fill:#9ac421;fill-opacity:1;fill-rule:evenodd;stroke:none"
         id="path100" /><path
         d="m 154.308,497.63 c -1.439,31.564 20.465,66.311 59.865,74.32 -40.946,-19.019 -53.245,-45.561 -59.865,-74.32"
         style="fill:#769a2a;fill-opacity:1;fill-rule:evenodd;stroke:none"
         id="path102" /></g></g></svg>
